<?xml version="1.0" standalone="no"?>
<!DOCTYPE svg PUBLIC "-//W3C//DTD SVG 1.1//EN" "http://www.w3.org/Graphics/SVG/1.1/DTD/svg11.dtd" >
<svg>
<metadata>
Created by FontForge 20110222 at Mon Mar 16 19:34:25 2015
 By deploy user
Copyright (c) 2011, Oriol Esparraguera Font (hi@parqink.com|www.parqink.com),
with Reserved Font Name Afta.
</metadata>
<defs>
<font id="Aftasans" horiz-adv-x="824" >
  <font-face 
    font-family="Afta sans"
    font-weight="400"
    font-stretch="normal"
    units-per-em="1000"
    panose-1="2 0 5 3 0 0 0 2 0 4"
    ascent="800"
    descent="-200"
    x-height="518"
    cap-height="715"
    bbox="-27 -235 1337 980"
    underline-thickness="50"
    underline-position="-150"
    unicode-range="U+0020-FB02"
  />
<missing-glyph horiz-adv-x="282" 
 />
    <glyph glyph-name="ff" unicode="ff" horiz-adv-x="626" 
d="M745 749l1 -51q-58 30 -112 30q-39 0 -65.5 -8.5t-40.5 -19.5t-20.5 -35t-7.5 -41t-1 -52v-8v-46h129v-43h-129v-686h-63v686h-266v-686h-63v686h-86v43h86v46q0 121 47.5 168.5t148.5 47.5q58 0 124 -38v-52q-71 38 -124 38q-20 0 -36.5 -1.5t-29 -6.5l-22.5 -9
t-17 -13.5t-12 -15.5t-8 -20t-4.5 -20.5t-2.5 -24t-1 -25v-28.5v-46h266v46q0 123 48.5 169.5t149.5 46.5q45 0 111 -31z" />
    <glyph glyph-name="fi" unicode="fi" horiz-adv-x="606" 
d="M165 518h389v-518h-71v475h-317v-475h-65v475h-79v43h79v92q0 103 54 156.5t138 53.5q43 0 77.5 -8t49.5 -15.5t46 -24.5v33h88v-89h-102q-87 62 -152 62q-70 0 -102.5 -53t-32.5 -119v-88z" />
    <glyph glyph-name="fl" unicode="fl" horiz-adv-x="602" 
d="M550 1h-71v633q0 72 -42.5 104.5t-136.5 32.5q-73 -2 -98.5 -44t-25.5 -120v-89h127v-44h-127v-474h-66v474h-90v44h90v89q0 121 49 168.5t141 47.5q250 0 250 -189v-633z" />
    <glyph glyph-name="tt" unicode="tt" horiz-adv-x="632" 
d="M255 475v43h180q13 116 20 154h46v-154h133v-43h-133v-336q0 -67 10 -84.5t49 -17.5q40 0 72 17v-51q-39 -15 -97 -15q-71 0 -92 40q-51 -43 -129 -43q-84 0 -119 14q-75 31 -75 139v336h-101v43h100l21 154h45v-533q0 -29 11 -50t24 -30.5t36 -15t35.5 -6t32.5 -0.5h6
q25 0 66 17.5t41 43.5v378h-182z" />
    <glyph glyph-name="ti" unicode="ti" horiz-adv-x="547" 
d="M438 56v462h67l4 -506q-126 -27 -193 -27q-29 0 -48.5 1.5t-49.5 10t-48.5 23.5t-32.5 45.5t-14 72.5v337h-100v43h99l20 153h47v-153h133v-43h-133v-337q0 -102 152 -102q53 0 97 20zM505 710h-83v85h83v-85z" />
    <glyph glyph-name="th" unicode="th" horiz-adv-x="870" 
d="M791 0v318q0 72 -26.5 117.5t-80.5 45.5q-81 0 -134.5 -45t-53.5 -99v-304q-37 -25 -94 -36.5t-91 -11.5q-195 0 -195 151v339h-102v43h101l21 153h45v-153h134v-43h-134v-337q0 -102 130 -102q11 0 27.5 2.5t39 8t38 18.5t15.5 31v699h65v-373q31 46 89 76t121 30
q69 0 110.5 -56t39.5 -162v-310h-65z" />
    <glyph glyph-name="ck" unicode="ck" horiz-adv-x="1047" 
d="M895 200l152 -200h-80l-131 169l-59 -25q-1 9 -1 52q82 36 146.5 89.5t64.5 113.5q0 45 -27.5 72.5t-69.5 27.5q-65 0 -132 -63.5t-69 -138.5v-133q-35 -33 -61 -54.5t-77 -55.5t-111.5 -52t-126.5 -18q-273 0 -273 279q0 146 69 207.5t204 61.5q70 0 162 -38v-57
q-91 49 -162 49q-44 0 -77 -9t-63.5 -31.5t-46.5 -68t-16 -112.5q0 -134 54.5 -184.5t148.5 -50.5q79 0 162.5 41t145.5 107v617h68v-389q34 65 93.5 104.5t127.5 39.5q61 0 100 -40.5t39 -99.5q0 -103 -154 -210z" />
    <glyph glyph-name="mm" unicode="mm" horiz-adv-x="1340" 
d="M1273 0v330q0 34 -2.5 57t-11 47.5t-28.5 37t-50 12.5q-70 0 -108 -49t-38 -115v-320h-66v320q0 164 -90 164q-65 0 -105 -49t-42 -110l3 -325h-64v330q0 79 -18 116.5t-74 37.5q-70 0 -108.5 -49t-38.5 -115v-320h-65v320q0 85 -20 124.5t-72 39.5q-70 0 -107.5 -50
t-37.5 -114v-320h-68v517h58l10 -99q25 58 73 86.5t103 28.5q39 0 73.5 -29.5t45.5 -85.5q21 46 74 80.5t110 34.5q43 0 77.5 -31.5t45.5 -95.5q18 61 69.5 94t107.5 33q42 0 77 -27.5t44 -87.5q18 50 71 82.5t114 32.5q64 0 93 -48t29 -162v-323h-64z" />
    <glyph glyph-name="oo" unicode="oo" horiz-adv-x="945" 
d="M692 533q249 0 249 -272q0 -142 -54.5 -210t-185.5 -68q-121 0 -203 97q-80 -97 -210 -97q-67 0 -116 22t-77 61.5t-41 88t-13 106.5q0 136 55.5 204t184.5 68q124 0 205 -96q82 96 206 96zM113 261q0 -78 16 -128t45.5 -71t54 -27t59.5 -6q17 0 27.5 0.5t31 5t33.5 12.5
t29.5 25t26.5 41t17 62t7 86q0 46 -8 83t-19 60t-29 40t-32.5 25t-34.5 12.5t-30.5 5t-25.5 0.5q-18 0 -27.5 -0.5t-30 -4.5t-33 -11.5t-29 -24.5t-25.5 -40t-16 -60.5t-7 -84.5zM519 261q0 -52 8 -91.5t27.5 -72.5t56.5 -50.5t90 -17.5q20 0 32.5 1.5t35 7t37.5 20.5
t30.5 39.5t23.5 66t8 97.5q0 46 -6.5 82.5t-16 60t-26 40.5t-30 25t-34 12.5t-32.5 5t-31 0.5q-54 0 -89.5 -18t-53 -52t-24 -70t-6.5 -86z" />
    <glyph glyph-name="rt" unicode="rt" horiz-adv-x="677" 
d="M145 248v-248h-71v518h60l10 -104q15 58 57.5 88.5t88.5 30.5q50 0 82 -15l-6 -54q-54 17 -76 17q-24 0 -41 -3t-38 -16.5t-34.5 -37.5t-22.5 -69t-9 -107zM481 104v433l20 134h45v-153h134v-43h-134v-336q0 -67 10 -84.5t49 -17.5q29 0 73 20v-55q-50 -14 -98 -14
q-52 0 -75.5 24t-23.5 92z" />
    <glyph glyph-name=".notdef" horiz-adv-x="282" 
 />
    <glyph glyph-name=".null" horiz-adv-x="0" 
 />
    <glyph glyph-name="nonmarkingreturn" horiz-adv-x="333" 
 />
    <glyph glyph-name="space" unicode=" " horiz-adv-x="282" 
 />
    <glyph glyph-name="exclam" unicode="!" horiz-adv-x="264" 
d="M95 0v86h85v-86h-85zM169 519l-25 -294h-21l-25 294v213h71v-213z" />
    <glyph glyph-name="quotedbl" unicode="&#x22;" horiz-adv-x="435" 
d="M327 493h-44v237h44v-237zM130 730h46v-237h-46v237z" />
    <glyph glyph-name="numbersign" unicode="#" horiz-adv-x="574" 
d="M414 458h-166l-36 -204h166q8 44 20 110.5t16 93.5zM202 458h-130v31h135l36 220h46l-38 -220h168l37 220h47l-39 -220h96v-31h-101l-34 -204h103v-31h-106q-15 -70 -38 -223h-46l37 223h-168q-36 -222 -36 -223h-46l37 223h-116v31h121z" />
    <glyph glyph-name="dollar" unicode="$" horiz-adv-x="585" 
d="M329 344v-317q76 21 117.5 59.5t41.5 87.5q0 102 -159 170zM298 409v299q-75 -13 -117.5 -50t-42.5 -95q0 -93 160 -154zM329 820v-69q144 -9 214 -47v-50q-98 47 -214 55v-304q41 -15 68.5 -26.5t63 -32t56 -43t35.5 -56t15 -73.5q0 -45 -21.5 -81t-57.5 -58t-76 -35.5
t-83 -18.5v-100h-31v99q-162 7 -240 60v65q94 -70 240 -77v321q-123 37 -181.5 86.5t-58.5 128.5q0 68 63 122t177 65v69h31z" />
    <glyph glyph-name="percent" unicode="%" horiz-adv-x="1000" 
d="M795 383q46 0 77.5 -16t48 -46t23.5 -62.5t8 -75.5q-1 -63 -15 -104t-39.5 -59t-48 -23.5t-53.5 -5.5q-33 0 -56.5 5.5t-50 23.5t-41 59t-15.5 104q2 99 40.5 149.5t121.5 50.5zM795 6q61 0 89.5 40t28.5 137q0 102 -27 142t-91 40q-61 0 -91 -42t-30 -144
q0 -96 31 -134.5t90 -38.5zM797 740h51l-563 -759h-50zM263 353q58 0 88.5 38.5t30.5 133.5q0 99 -31 138.5t-88 39.5q-59 0 -89.5 -39.5t-30.5 -141.5q0 -169 120 -169zM263 726q46 0 78 -16t48.5 -46t24 -63t8.5 -76q-1 -62 -16.5 -103.5t-41.5 -59.5t-48.5 -24t-51.5 -6
q-159 0 -162 193q2 99 40.5 150t120.5 51z" />
    <glyph glyph-name="ampersand" unicode="&#x26;" horiz-adv-x="759" 
d="M408 728q77 -1 117.5 -27.5t40.5 -86.5q0 -15 -8 -66q105 -18 151.5 -74.5t46.5 -167.5q0 -158 -125 -250q53 -30 110 -30q83 0 156 41v-53q-54 -30 -159 -30q-86 0 -159 45q-104 -47 -252 -47q-150 0 -215.5 68.5t-65.5 203.5q0 115 52.5 171t170.5 74q-4 16 -9 33.5
t-7 26t-4 22.5t-2 33q0 114 161 114zM274 473q-47 -12 -72.5 -23.5t-48.5 -34.5t-32 -60.5t-9 -96.5q0 -132 51 -183t166 -51q91 0 208 33q-159 152 -263 416zM546 517q-41 -121 -122 -254q49 -75 76.5 -108t71.5 -69q117 56 117 224q0 69 -16.5 109t-44 59.5t-82.5 38.5z
M518 598q0 51 -29 68.5t-81 17.5q-58 0 -87 -17t-29 -69q0 -49 36.5 -133t79.5 -159q39 75 57 113t35.5 90t17.5 89z" />
    <glyph glyph-name="quotesingle" unicode="'" horiz-adv-x="286" 
d="M175 493h-45v237h45v-237z" />
    <glyph glyph-name="parenleft" unicode="(" horiz-adv-x="315" 
d="M266 753h36q-59 -91 -111.5 -223t-52.5 -261q0 -197 157 -482h-29q-22 25 -48 62t-64.5 103t-63.5 150.5t-25 166.5q0 127 56.5 255t144.5 229z" />
    <glyph glyph-name="parenright" unicode=")" horiz-adv-x="308" 
d="M22 753h36q202 -248 202 -484q0 -226 -201 -482h-31q50 97 78 158t54.5 153t26.5 171q0 70 -18 146t-47 143t-52.5 111.5t-47.5 83.5z" />
    <glyph glyph-name="asterisk" unicode="*" horiz-adv-x="329" 
d="M184 605q17 -8 46.5 -23.5t49.5 -25.5l20 -11l-8 -25l-103 72v-130h-26v130l-103 -72l-8 25q25 15 43 24q34 19 73 36q-20 9 -60.5 26.5t-55.5 24.5q2 6 9 23l102 -54v106h26v-106l102 54q7 -17 9 -23q-15 -7 -55.5 -24.5t-60.5 -26.5z" />
    <glyph glyph-name="plus" unicode="+" horiz-adv-x="600" 
d="M286 509h45v-235h236v-42h-236v-231h-45v231h-227v42h227v235z" />
    <glyph glyph-name="comma" unicode="," horiz-adv-x="278" 
d="M106 0v84h87q8 -62 8 -99q0 -156 -109 -172v35q27 3 43 16t22 39t7.5 43.5t1.5 53.5h-60z" />
    <glyph glyph-name="hyphen" unicode="-" horiz-adv-x="398" 
d="M67 304h280v-51h-280v51z" />
    <glyph glyph-name="period" unicode="." horiz-adv-x="271" 
d="M106 -1v84h85v-84h-85z" />
    <glyph glyph-name="slash" unicode="/" horiz-adv-x="347" 
d="M6 -19l304 772h47l-304 -772h-47z" />
    <glyph glyph-name="zero" unicode="0" horiz-adv-x="650" 
d="M343 678q-105 0 -162 -77.5t-57 -259.5q0 -316 219 -316q96 0 154 78t58 245q0 173 -57.5 251.5t-154.5 78.5zM343 723q278 0 278 -375q0 -91 -20 -160t-48.5 -106.5t-69 -61t-73 -30t-67.5 -6.5q-36 0 -69.5 6.5t-75 30t-71.5 61t-50.5 106.5t-20.5 160t17 160t44 109
t66 64.5t77 33t83 8.5z" />
    <glyph glyph-name="one" unicode="1" horiz-adv-x="435" 
d="M173 726h82v-726h-66v674l-43 -12l-20 -6t-16 -4.5t-6 -0.5v29q6 0 69 46z" />
    <glyph glyph-name="two" unicode="2" horiz-adv-x="581" 
d="M117 48h407v-48h-490q2 75 20.5 130.5t58 97t81 69t110.5 63.5h-1q134 66 134 177q0 58 -41 98t-122 44q-98 0 -162 -78q-45 36 -50 39q28 36 85 61t126 25q112 0 170 -53.5t58 -135.5q0 -149 -179 -236q-199 -98 -205 -253z" />
    <glyph glyph-name="three" unicode="3" horiz-adv-x="620" 
d="M311 679q-104 0 -249 -74v54q134 68 249 68q99 0 165.5 -41t66.5 -125q0 -141 -130 -176q85 -21 131 -60.5t46 -122.5q0 -91 -82.5 -155t-219.5 -64q-164 0 -245 39v53q108 -49 239 -49q62 0 108.5 19t70 48t34.5 56.5t11 52.5q0 60 -54 107.5t-147 47.5h-86v48h86
q162 0 162 141q0 54 -39 93.5t-117 39.5z" />
    <glyph glyph-name="four" unicode="4" horiz-adv-x="676" 
d="M70 244h355v430q-156 -187 -355 -430zM425 201h-388v62q67 78 196.5 232t196.5 232h60v-483h165v-43h-165v-201h-65v201z" />
    <glyph glyph-name="five" unicode="5" horiz-adv-x="620" 
d="M107 715h472q-1 -5 -3 -18.5t-4 -20.5h-406l-29 -230q86 37 164 37q133 0 209.5 -57t76.5 -176q0 -118 -79.5 -184t-206.5 -66q-168 0 -257 53v58q144 -70 257 -70q56 0 99 20t67 51.5t36 67t12 70.5q0 81 -52.5 136.5t-161.5 55.5q-65 0 -187 -42l-54 32q22 144 41 245
q2 22 6 38z" />
    <glyph glyph-name="six" unicode="6" horiz-adv-x="602" 
d="M133 219q0 -69 50 -129t130 -60q116 0 167.5 91.5t10.5 183.5t-150 92q-71 0 -126.5 -52t-81.5 -126zM567 659l-4 -58q-123 76 -227 76q-49 0 -88 -19.5t-61.5 -51t-39 -73t-21 -85t-7.5 -86t1 -77.5q10 29 36 63.5t77 65.5t108 31q133 0 199 -94q56 -79 35 -176
q-22 -101 -114 -151q-62 -34 -147 -34q-129 0 -195.5 82t-66.5 284q0 194 78 282.5t206 88.5q44 0 89 -11.5t70 -22.5t72 -34z" />
    <glyph glyph-name="seven" unicode="7" horiz-adv-x="613" 
d="M56 672l16 37h504q0 -19 -2.5 -34t-8.5 -27.5t-10.5 -19.5t-15 -21t-14.5 -20q1 0 -19.5 -26t-58.5 -74t-80 -99q-57 -82 -57 -179v-209h-68v209q0 107 69 200q97 127 208 263h-463z" />
    <glyph glyph-name="eight" unicode="8" horiz-adv-x="613" 
d="M349 445q8 2 26.5 11.5t43 25.5t42.5 41.5t18 52.5q0 104 -164 104q-61 0 -112.5 -26t-51.5 -78q0 -71 198 -131zM280 402q-77 -24 -120.5 -77.5t-43.5 -129.5q0 -83 60 -124t140 -41q84 0 143 45t59 120q0 89 -72.5 144.5t-165.5 62.5zM224 416q-21 9 -42 20.5
t-46.5 30.5t-41 45.5t-15.5 54.5q0 76 61.5 117.5t175.5 41.5t173.5 -45t59.5 -114q0 -98 -141 -149q181 -85 181 -223q0 -102 -76 -157t-198 -55q-266 0 -266 212q0 44 19.5 83.5t49 66.5t56 44.5t50.5 26.5z" />
    <glyph glyph-name="nine" unicode="9" horiz-adv-x="602" 
d="M494 498q0 69 -50 129t-130 60q-110 0 -163 -87q-44 -73 -23.5 -157t95.5 -112q29 -11 63 -11q71 0 126.5 52t81.5 126zM60 58l4 58q123 -76 227 -76q49 0 88 19.5t61.5 51t39 73t21 85t7.5 86t-1 77.5q-10 -29 -36 -63.5t-77 -65.5t-108 -31q-133 0 -199 94
q-56 79 -35 176q22 101 114 151q62 34 147 34q129 0 195.5 -82t66.5 -284q0 -194 -78 -282.5t-206 -88.5q-44 0 -89 11.5t-70 22.5t-72 34z" />
    <glyph glyph-name="colon" unicode=":" horiz-adv-x="281" 
d="M106 -1v84h85v-84h-85zM191 433h-85v84h85v-84z" />
    <glyph glyph-name="semicolon" unicode=";" horiz-adv-x="287" 
d="M166 0h-60v84h87q8 -62 8 -99q0 -156 -109 -172v35q27 3 43 16t22 39t7.5 43.5t1.5 53.5zM191 433h-85v84h85v-84z" />
    <glyph glyph-name="less" unicode="&#x3c;" horiz-adv-x="621" 
d="M590 511v-53l-489 -205l498 -204v-51q-92 37 -270 118.5t-270 118.5v39q88 36 265.5 118.5t265.5 118.5z" />
    <glyph glyph-name="equal" unicode="=" horiz-adv-x="598" 
d="M59 169h501v-41h-501v41zM59 378h501v-43h-501v43z" />
    <glyph glyph-name="greater" unicode="&#x3e;" horiz-adv-x="618" 
d="M57 458v53q88 -36 265.5 -118.5t265.5 -118.5v-39q-92 -37 -270 -118.5t-270 -118.5v51l498 204z" />
    <glyph glyph-name="question" unicode="?" horiz-adv-x="581" 
d="M276 223h-40q2 39 12.5 71t31 57.5t34.5 39t37 32.5q52 44 67 65q26 36 26 87q0 58 -43.5 91.5t-132.5 33.5q-87 0 -195 -50v69q78 32 195 32q111 0 178.5 -43.5t67.5 -132.5q0 -40 -18.5 -75t-39 -54.5t-55.5 -46.5q-110 -85 -125 -176zM219 -1v84h84v-84h-84z" />
    <glyph glyph-name="at" unicode="@" horiz-adv-x="817" 
d="M497 347l9 52q-60 73 -97 73q-65 0 -65 -114q0 -84 69 -84q26 0 53 24t31 49zM806 441q0 -94 -46 -162.5t-147 -68.5q-48 0 -78.5 21.5t-40.5 47.5q-32 -56 -100 -56q-116 0 -116 142q0 68 30.5 114.5t89.5 46.5q24 0 57 -17.5t58 -52.5q0 3 16 62q-2 0 50 -18
q-21 -155 -21 -187q0 -61 61 -61q54 0 82.5 55.5t28.5 141.5q0 82 -44.5 141.5t-110.5 86.5t-143 27q-18 0 -32.5 -1t-48 -7.5t-60 -18t-58.5 -37t-53.5 -59.5t-36.5 -89.5t-15 -124.5q0 -70 15 -125.5t36 -90.5t55.5 -60t61.5 -37t66 -18.5t57.5 -7t46.5 -0.5h7
q148 0 316 95v-85q-152 -56 -353 -56q-193 0 -292 104t-95 280q0 175 108 280.5t278 105.5q162 0 266.5 -80.5t104.5 -230.5z" />
    <glyph glyph-name="A" unicode="A" horiz-adv-x="651" 
d="M470 314l-127 368l-142 -368h269zM11 0l282 715h103l251 -715h-74l-90 272h-292l-111 -272h-69z" />
    <glyph glyph-name="B" unicode="B" horiz-adv-x="685" 
d="M158 367v-334l150 -7q150 -4 207.5 41.5t57.5 135.5q0 77 -58 120.5t-153 43.5h-204zM158 412h159q102 0 147 29.5t45 97.5q0 132 -185 132h-166v-259zM93 714h230q261 0 261 -175q0 -62 -40 -98.5t-105 -45.5q95 -16 154 -65t59 -135q0 -214 -290 -208q-197 3 -267 12
q0 122 -1 357.5t-1 357.5z" />
    <glyph glyph-name="C" unicode="C" horiz-adv-x="680" 
d="M426 731q81 0 192 -33v-61q-109 52 -192 52q-8 0 -20.5 -1t-40.5 -8t-54.5 -19t-57 -37t-53.5 -59t-40 -88.5t-19 -121.5q1 -68 16.5 -122t36.5 -87.5t53 -57.5t56 -34.5t56 -16.5t42.5 -6.5t24.5 -0.5q103 0 199 78v-69q-89 -60 -199 -60q-171 0 -268 106.5t-99 268.5
q0 177 104.5 277t262.5 100z" />
    <glyph glyph-name="D" unicode="D" horiz-adv-x="682" 
d="M157 665v-582q0 -28 3.5 -33.5t21.5 -5.5h91q37 0 74.5 9t76.5 32t68.5 57t48.5 89t19 124q0 66 -18.5 121t-48.5 90.5t-68.5 60t-76.5 35.5t-75 11q-116 0 -116 -8zM92 716h180q77 0 140.5 -24t104.5 -61.5t70 -86t41 -96.5t12 -93q0 -47 -10 -93t-36.5 -94t-66.5 -84.5
t-105.5 -59.5t-148.5 -23h-181v715z" />
    <glyph glyph-name="E" unicode="E" horiz-adv-x="568" 
d="M94 0v714h415v-42h-352v-287h261v-43h-261v-299h376v-43h-439z" />
    <glyph glyph-name="F" unicode="F" horiz-adv-x="579" 
d="M94 0v714h462v-44h-398v-285h247v-50h-247v-335h-64z" />
    <glyph glyph-name="G" unicode="G" horiz-adv-x="794" 
d="M676 301h66v-263q-177 -58 -306 -58q-383 -4 -383 379q0 170 98.5 271.5t273.5 101.5q87 0 158.5 -12.5t103.5 -24.5v-67q-7 3 -45.5 18t-59.5 21.5t-65 13.5t-92 7q-145 0 -221 -93.5t-76 -241.5q0 -67 14.5 -120t35 -86t52 -57t57 -35t59.5 -17.5t49.5 -7t36.5 -0.5h4
q150 0 240 61v210z" />
    <glyph glyph-name="H" unicode="H" horiz-adv-x="750" 
d="M617 381v334h65v-715h-65v336h-452v-336h-72v715h72v-334h452z" />
    <glyph glyph-name="I" unicode="I" horiz-adv-x="259" 
d="M103 0v715h64v-715h-64z" />
    <glyph glyph-name="J" unicode="J" horiz-adv-x="272" 
d="M121 716h62v-738q0 -50 -13 -86.5t-34 -55.5t-38.5 -27.5t-36.5 -12.5v37q33 33 46.5 65.5t13.5 79.5v738z" />
    <glyph glyph-name="K" unicode="K" horiz-adv-x="626" 
d="M151 307l351 408h68l-235 -279l289 -436h-78l-254 384l-141 -154v-230h-64v715h64v-408z" />
    <glyph glyph-name="L" unicode="L" horiz-adv-x="535" 
d="M182 45h349v-45h-437v715h66v-644q0 -20 2.5 -23t19.5 -3z" />
    <glyph glyph-name="M" unicode="M" horiz-adv-x="920" 
d="M518 84h-74l-286 590q0 -104 -1.5 -330t-1.5 -344h-63v715h122l242 -536q8 -18 18 -22t18 2.5t13 19.5q233 523 238 536h113v-715h-64l-1 675z" />
    <glyph glyph-name="N" unicode="N" horiz-adv-x="711" 
d="M91 0v714h95l397 -638v638h66v-714h-75l-419 673v-673h-64z" />
    <glyph glyph-name="O" unicode="O" 
d="M125 357q0 -70 15 -126t35 -90t53.5 -58.5t56.5 -35t60 -16.5t46.5 -6h32.5q16 0 30.5 1t48 7.5t60.5 18t60 36t55.5 58.5t38 88.5t15.5 122.5q0 69 -15.5 124t-37.5 88.5t-56.5 58t-60 35.5t-61 17t-47.5 6.5t-31 0.5q-17 0 -32 -1t-47.5 -7.5t-58.5 -18t-57.5 -36
t-52.5 -58.5t-35.5 -88t-14.5 -121zM424 731q193 -3 284 -96t91 -279q0 -170 -91.5 -273t-283.5 -103q-372 0 -377 376q0 182 98 277t279 98z" />
    <glyph glyph-name="P" unicode="P" horiz-adv-x="616" 
d="M159 671v-324h182q49 0 86 18t55.5 45t27 51.5t8.5 43.5q0 29 -8.5 56t-27 53t-55 41.5t-86.5 15.5h-182zM95 714l246 1q68 0 119 -19t79 -50t41.5 -66.5t13.5 -74.5q0 -37 -13 -71t-40.5 -65t-79 -49.5t-120.5 -18.5h-182v-302h-64v715z" />
    <glyph glyph-name="Q" unicode="Q" horiz-adv-x="821" 
d="M125 354q0 -70 15 -126t35 -90t53.5 -58.5t56.5 -35t60 -16.5t46.5 -6h32.5q16 0 30.5 1t48 7.5t60.5 18t60 36t55 58.5t37.5 88.5t15.5 122.5q0 54 -9.5 99.5t-24 77.5t-37.5 57.5t-43 41.5t-48.5 27t-46.5 16t-43.5 8t-33.5 3h-22q-17 0 -32 -1t-47.5 -7.5t-58.5 -18
t-57.5 -36t-52.5 -58.5t-35.5 -88t-14.5 -121zM424 728q193 -3 284 -96t91 -279q0 -162 -85 -262t-268 -114v-33q0 -66 40.5 -100.5t86.5 -39.5v-11q-56 3 -95 21.5t-55 45t-22 46.5t-6 39v32q-343 26 -348 376q0 182 98 277t279 98z" />
    <glyph glyph-name="R" unicode="R" horiz-adv-x="662" 
d="M155 397h177q90 0 129.5 42t39.5 96q0 55 -41 95.5t-128 40.5h-177v-274zM92 715h240q117 0 177 -47t60 -124t-47.5 -121t-107.5 -51q25 -6 43 -16.5t30.5 -28.5t19.5 -31.5t17 -38.5l103 -257h-66q-108 273 -114 286q-29 62 -91 62h-201v-348h-63v715z" />
    <glyph glyph-name="S" unicode="S" horiz-adv-x="588" 
d="M531 689v-51q-108 50 -227 50q-71 0 -120 -37t-49 -101q0 -60 38 -92.5t118 -54.5q45 -14 71 -23t67.5 -29.5t64.5 -42.5t41 -58t18 -80q0 -55 -27.5 -95t-72 -59.5t-86.5 -27.5t-84 -8q-142 0 -227 58v66q103 -76 227 -76q82 0 138 41.5t56 100.5q0 23 -5 41t-21 43.5
t-56 48t-101 38.5h1q-123 35 -181 81.5t-58 128.5q0 74 66.5 127t182.5 53q142 0 226 -42z" />
    <glyph glyph-name="T" unicode="T" horiz-adv-x="616" 
d="M621 716v-43h-267v-673h-67v673h-275v43h609z" />
    <glyph glyph-name="U" unicode="U" horiz-adv-x="717" 
d="M580 715h63v-409q0 -35 -0.5 -53t-5.5 -57t-14.5 -62t-29.5 -54.5t-48.5 -49t-73.5 -30.5t-102 -13q-58 0 -104 13t-75 31t-50 49t-31 56t-15.5 63.5t-6 59.5t-0.5 55v401h65v-409q0 -272 217 -272q211 0 211 272v409z" />
    <glyph glyph-name="V" unicode="V" horiz-adv-x="683" 
d="M650 715l-271 -715h-97l-261 715h70l240 -669l240 669h79z" />
    <glyph glyph-name="W" unicode="W" horiz-adv-x="1060" 
d="M18 715h74l242 -666l172 666h82l168 -668l237 668h76l-260 -715h-97l-165 679l-167 -679h-97z" />
    <glyph glyph-name="X" unicode="X" horiz-adv-x="683" 
d="M32 -1l285 369l-269 347h78l224 -298l226 298h78l-263 -347l278 -369h-69l-250 321l-248 -321h-70z" />
    <glyph glyph-name="Y" unicode="Y" horiz-adv-x="690" 
d="M318 268l-289 447h73l250 -396l253 396h74l-289 -447v-269h-72v269z" />
    <glyph glyph-name="Z" unicode="Z" horiz-adv-x="655" 
d="M102 50h539v-50h-607v67l548 605h-548v43h607v-66z" />
    <glyph glyph-name="bracketleft" unicode="[" horiz-adv-x="324" 
d="M323 750v-45h-158v-874h158v-44h-233v963h233z" />
    <glyph glyph-name="backslash" unicode="\" horiz-adv-x="347" 
d="M310 -19l-304 772h47l304 -772h-47z" />
    <glyph glyph-name="bracketright" unicode="]" horiz-adv-x="324" 
d="M15 750h232v-962h-232v46h158v871h-158v45z" />
    <glyph glyph-name="asciicircum" unicode="^" horiz-adv-x="602" 
d="M124 290l-51 -1l225 421v1h36q35 -75 116.5 -222.5t111.5 -207.5h-47l-199 393q-55 -117 -116 -234t-76 -150z" />
    <glyph glyph-name="underscore" unicode="_" horiz-adv-x="500" 
d="M10 -120h501v-19h-501v19z" />
    <glyph glyph-name="grave" unicode="`" horiz-adv-x="222" 
d="M4 751h78l50 -112h-42z" />
    <glyph glyph-name="a" unicode="a" horiz-adv-x="463" 
d="M353 98l2 175q-60 -15 -142 -15q-20 0 -30.5 -0.5t-28 -6.5t-26.5 -16.5t-16.5 -33t-7.5 -54.5q0 -55 31.5 -83t81.5 -28q71 0 136 62zM420 331v-331h-47l-33 37q-43 -22 -79 -33t-92 -11q-59 0 -95 40.5t-36 114.5q0 68 37.5 110.5t123.5 42.5q82 0 107.5 4t46.5 23
q0 71 -12 104.5t-34 43t-70 9.5q-71 0 -148 -30q-13 36 -17 44q80 34 171 34q82 0 129.5 -44t47.5 -158z" />
    <glyph glyph-name="b" unicode="b" horiz-adv-x="514" 
d="M119 241v-178q64 -34 138 -34q159 0 159 246q0 213 -109 213q-45 0 -83 -28.5t-59.5 -69.5t-33.5 -80.5t-12 -68.5zM52 25l-2 769h67v-410q14 53 68 101t124 48q176 0 176 -258q0 -150 -58.5 -218.5t-185.5 -68.5q-95 0 -189 37z" />
    <glyph glyph-name="c" unicode="c" horiz-adv-x="509" 
d="M323 30q86 0 174 43q0 -20 0.5 -37.5t0.5 -20.5q-100 -31 -175 -31q-136 0 -203 68t-67 211q0 146 68.5 207.5t201.5 61.5q87 0 165 -44v-53q-2 1 -18 8t-19.5 8.5l-17.5 7.5t-19 7.5t-17 6t-19 6t-17.5 4t-19.5 3t-18 0.5q-44 0 -77 -9t-63.5 -31.5t-46.5 -68
t-16 -112.5q0 -134 54.5 -184.5t148.5 -50.5z" />
    <glyph glyph-name="d" unicode="d" horiz-adv-x="538" 
d="M423 222l1 226q-32 15 -82.5 29t-84.5 14q-138 0 -138 -229q0 -230 132 -230q172 0 172 190zM424 68q-53 -80 -173 -80q-89 0 -144 65t-55 208q0 141 58.5 208.5t146.5 67.5q72 0 167 -36v292h67v-797h-63q0 2 -2 21.5t-2 50.5z" />
    <glyph glyph-name="e" unicode="e" horiz-adv-x="521" 
d="M127 305l307 1q-1 70 -33 125q-35 55 -113 55q-81 0 -121 -52t-40 -129zM288 25q54 0 93 25t60 56q13 -10 23 -18t14 -11.5t7 -5.5q-74 -87 -197 -87q-127 0 -180 67t-55 196q0 285 235 285q206 0 205 -269l-374 1q0 -49 2 -79.5t11.5 -64.5t27 -52t50 -30.5t78.5 -12.5z
" />
    <glyph glyph-name="f" unicode="f" horiz-adv-x="322" 
d="M422 748l1 -51q-57 30 -111 30q-39 0 -65.5 -8.5t-40.5 -19.5t-20.5 -35t-7.5 -41t-1 -52v-8v-45h129v-43h-129v-475h-64v475h-86v43h86v45q0 121 48.5 168.5t150.5 47.5q61 0 110 -31z" />
    <glyph glyph-name="g" unicode="g" horiz-adv-x="563" 
d="M470 518h45v-524q0 -12 -0.5 -22.5t-5 -34.5t-13 -43t-26 -42t-41.5 -38.5t-62.5 -26t-86.5 -10.5q-122 0 -200 91l40 32q19 -20 47 -40q57 -39 113 -39q169 0 169 173v65q-30 -42 -65 -60t-93 -18q-126 0 -183.5 79.5t-57.5 202.5q0 135 53.5 202.5t177.5 67.5
q72 0 112 -21.5t72 -69.5zM117 263q0 -77 16 -127.5t45 -72.5t54 -29t59 -7q23 0 39.5 2.5t41 15.5t40 36.5t27 70t11.5 111.5q0 46 -6 81.5t-14 59t-23 39.5t-27 24.5t-31 13t-30.5 5t-30.5 0.5h-24.5t-24.5 -2t-26.5 -5.5t-24 -11t-23.5 -18t-18.5 -27.5t-16 -39
t-9.5 -52.5t-4 -67.5z" />
    <glyph glyph-name="h" unicode="h" horiz-adv-x="569" 
d="M442 0v320q0 79 -32 121t-94 42q-68 0 -119.5 -46t-51.5 -106v-331h-66v795h66v-384q20 48 80.5 85t120.5 37q73 0 116.5 -56t43.5 -164v-313h-64z" />
    <glyph glyph-name="i" unicode="i" horiz-adv-x="229" 
d="M160 711h-85v85h85v-85zM92 0v518h68v-518h-68z" />
    <glyph glyph-name="j" unicode="j" horiz-adv-x="231" 
d="M161 518v-534q0 -56 -13.5 -96t-36.5 -60t-41.5 -29t-39.5 -13q1 19 1 45q62 56 62 143v544h68zM161 796v-85h-84v85h84z" />
    <glyph glyph-name="k" unicode="k" horiz-adv-x="538" 
d="M357 200l152 -200h-79l-130 170l-61 -27v53q50 21 94 47.5t81.5 69.5t37.5 86q0 45 -27.5 72.5t-69.5 27.5q-65 0 -132 -63.5t-69 -138.5v-297h-68v794h68v-383q89 139 220 139q62 0 100 -40.5t38 -99.5q0 -107 -155 -210z" />
    <glyph glyph-name="l" unicode="l" horiz-adv-x="229" 
d="M158 0h-66v794h66v-794z" />
    <glyph glyph-name="m" unicode="m" horiz-adv-x="789" 
d="M684 0v330q0 79 -18.5 116.5t-74.5 37.5q-71 0 -108.5 -49t-37.5 -115v-320h-68v320q0 84 -20 124t-71 40q-69 0 -107.5 -57.5t-38.5 -123.5v-303h-66v517h59l6 -110q42 126 177 126q86 0 120 -126q24 55 71 90.5t115 35.5q64 0 93.5 -50t29.5 -160l3 -323h-64z" />
    <glyph glyph-name="n" unicode="n" horiz-adv-x="562" 
d="M445 0v320q0 79 -32 121t-94 42q-68 0 -119.5 -46t-51.5 -106v-331h-66v518h59l6 -103q19 47 80 82.5t122 35.5q74 0 117 -56t43 -164v-313h-64z" />
    <glyph glyph-name="o" unicode="o" horiz-adv-x="563" 
d="M118 261q0 -63 11.5 -108t28 -68.5t42.5 -36.5t46 -16t48 -3q25 0 40 1.5t40.5 14t40.5 35t27 69t12 112.5q0 46 -6.5 82.5t-15.5 60t-24.5 40t-28.5 25t-33 13t-31.5 5t-31.5 0.5q-21 0 -31 -0.5t-31 -4.5t-32.5 -12t-27 -24t-23.5 -39.5t-14 -60.5t-6 -85zM283 533
q246 0 246 -272q0 -143 -51.5 -210.5t-183.5 -67.5q-128 0 -186.5 77.5t-58.5 200.5q0 136 54 204t180 68z" />
    <glyph glyph-name="p" unicode="p" horiz-adv-x="544" 
d="M328 490q-58 0 -102 -34t-63.5 -77.5t-19.5 -84.5v-223q57 -30 121 -30q54 0 90.5 18.5t53.5 52.5t23.5 68.5t6.5 79.5q0 37 -1.5 65t-8.5 61t-18 54t-32 35.5t-50 14.5zM142 11v-224h-64v730h52l12 -120q8 38 62.5 87.5t123.5 49.5q92 0 133 -70.5t41 -203.5
q0 -141 -57.5 -204.5t-186.5 -63.5q-45 0 -116 19z" />
    <glyph glyph-name="q" unicode="q" horiz-adv-x="540" 
d="M227 31q84 0 134.5 64.5t50.5 131.5v223q-73 39 -140 39q-156 0 -156 -228q0 -47 3.5 -81.5t14 -71.5t34 -57t59.5 -20zM477 -211h-65v320q-80 -121 -185 -121q-92 0 -133 70.5t-41 202.5q0 141 57.5 204.5t185.5 63.5q93 0 181 -44v-696z" />
    <glyph glyph-name="r" unicode="r" horiz-adv-x="367" 
d="M147 0h-69v517h55l14 -114q24 62 55.5 95.5t89.5 33.5q46 0 80 -13l-4 -55q-52 16 -76 16q-59 0 -102 -56.5t-43 -175.5v-248z" />
    <glyph glyph-name="s" unicode="s" horiz-adv-x="472" 
d="M235 528q13 0 26.5 -1t24.5 -2t24 -4t21 -5t20.5 -6t18 -5.5t17 -6.5t14.5 -6t14 -6t12 -5q0 -8 0.5 -25t0.5 -23q-123 53 -193 53q-49 0 -78.5 -18.5t-29.5 -70.5q0 -45 25 -62.5t92 -35.5q109 -27 159.5 -64.5t50.5 -96.5q0 -71 -56 -112t-149 -41q-120 0 -205 58
q0 11 0.5 32t0.5 33q124 -73 204 -73q135 0 135 103q0 20 -11 36t-24.5 26.5t-43 22t-48.5 17t-59 16.5q-80 23 -111 56t-31 87q0 21 7.5 41t25.5 41t55.5 34t90.5 13z" />
    <glyph glyph-name="t" unicode="t" horiz-adv-x="344" 
d="M25 518h101q4 25 10.5 77l9.5 76h45v-153h134v-43h-134v-336q0 -67 10.5 -84.5t48.5 -17.5q39 0 73 16v-50q-64 -15 -98 -15q-51 0 -74.5 24t-23.5 92v371h-102v43z" />
    <glyph glyph-name="u" unicode="u" horiz-adv-x="574" 
d="M146 518v-330q0 -82 24.5 -121t87.5 -39q72 0 129.5 49t57.5 127v314h65v-518h-60l-5 108q-23 -60 -76 -92.5t-127 -32.5q-73 0 -118.5 51t-45.5 163v321h68z" />
    <glyph glyph-name="v" unicode="v" horiz-adv-x="548" 
d="M33 518h69l179 -459q1 0 98 229t94 230h67l-226 -518h-63z" />
    <glyph glyph-name="w" unicode="w" horiz-adv-x="787" 
d="M27 518h63l126 -468q1 0 89 233.5t88 234.5h54l163 -469l110 469h64l-130 -518h-82l-152 477l-170 -477h-77z" />
    <glyph glyph-name="x" unicode="x" horiz-adv-x="511" 
d="M262 223l-166 -222h-71l201 270l-180 247h78l137 -198l141 198h77l-179 -247l198 -270h-68z" />
    <glyph glyph-name="y" unicode="y" horiz-adv-x="535" 
d="M257 -52l-227 570h68l193 -518l168 518h68l-261 -730h-58z" />
    <glyph glyph-name="z" unicode="z" horiz-adv-x="458" 
d="M109 53h330v-53h-402v53l333 421h-333v44h410v-44z" />
    <glyph glyph-name="braceleft" unicode="{" horiz-adv-x="447" 
d="M430 -167v-46h-68q-42 0 -78 11t-66.5 34t-47.5 65.5t-17 99.5v153q0 11 -2 21t-6.5 18t-8 14.5t-11 12.5t-11.5 9.5t-13.5 8t-12.5 5.5t-12 5l-10 4v46q82 32 87 102v155q0 103 60 152.5t149 49.5h68v-47h-58q-150 0 -150 -109v-200q0 -37 -16 -69t-47 -38v-38
q33 -6 48 -35t15 -67v-210q0 -107 150 -107h58z" />
    <glyph glyph-name="bar" unicode="|" horiz-adv-x="229" 
d="M100 -234v1043h47v-1043h-47z" />
    <glyph glyph-name="braceright" unicode="}" horiz-adv-x="444" 
d="M105 -213h-68v46h58q151 0 151 107v210q0 89 63 101v38q-33 5 -48 37.5t-15 70.5v200q0 109 -151 109h-58v47h68q90 0 150 -49.5t60 -152.5v-154q0 -73 87 -103v-47q-34 -14 -59.5 -39t-27.5 -58v-153q0 -111 -59 -160.5t-151 -49.5z" />
    <glyph glyph-name="asciitilde" unicode="~" horiz-adv-x="600" 
d="M207 216q-35 0 -99 -19q0 10 -1 21t-1 19q67 31 103 31q47 0 102 -14t108 -14q49 0 99 22v-45q-67 -28 -99 -28q-50 0 -106.5 13.5t-105.5 13.5z" />
    <glyph glyph-name="exclamdown" unicode="&#xa1;" horiz-adv-x="264" 
d="M180 515v-84h-84v84h84zM106 -4l25 294h21l25 -294v-213h-71v213z" />
    <glyph glyph-name="cent" unicode="&#xa2;" horiz-adv-x="509" 
d="M288 529v75h33v-75q93 -8 167 -37l-8 -47q-88 38 -159 45v-462q104 10 176 45q0 -50 1 -59q-95 -27 -177 -30v-108h-33v110q-114 0 -174.5 74t-60.5 203t62.5 197.5t172.5 68.5zM120 265v-1q0 -108 46.5 -172.5t121.5 -64.5v463q-64 0 -116 -63.5t-52 -161.5z" />
    <glyph glyph-name="sterling" unicode="&#xa3;" horiz-adv-x="585" 
d="M539 198q0 84 -52 136q5 6 14 15.5t12 12.5q63 -62 63 -164q0 -101 -68 -151.5t-168 -46.5h-291v43q111 16 111 162v155h-49v45h49v174q0 84 56.5 127t134.5 43q69 0 112 -26v-43q-54 25 -104 25q-71 0 -96 -40t-25 -109v-151h113v-45h-113v-155q0 -66 -21 -102t-60 -59
l177 -2q193 0 205 156z" />
    <glyph glyph-name="yen" unicode="&#xa5;" horiz-adv-x="690" 
d="M289 325l-265 406h83l245 -403q133 213 256 403h84l-265 -406h174v-41h-206v-169h206v-40h-206v-75h-74v75h-203v40h203v169h-203v41h171z" />
    <glyph glyph-name="section" unicode="&#xa7;" horiz-adv-x="556" 
d="M365 84q121 -47 121 -146q0 -72 -55.5 -111.5t-149.5 -39.5q-18 0 -36 2t-32.5 4.5t-31 7.5t-27 8.5t-25 9.5t-20.5 9l-18 9l-14 7v67q114 -74 204 -74q66 0 102 21.5t36 79.5q0 50 -57.5 91.5t-131.5 41.5q-85 0 -129.5 54.5t-44.5 141.5q0 26 6.5 52t22.5 55t47 53.5
t75 38.5q-47 28 -66.5 62t-19.5 91q0 22 7 41.5t25 40t55.5 32.5t91.5 12q101 0 193 -46v-49q-107 52 -193 52q-50 0 -80 -18t-30 -70q0 -119 172 -155q75 -16 116.5 -59t41.5 -133q0 -59 -37.5 -113.5t-117.5 -69.5zM235 419q-42 0 -76.5 -40.5t-34.5 -90.5q0 -55 5 -83.5
t24.5 -51.5t57.5 -30.5t104 -7.5q54 0 94.5 42.5t40.5 109.5q0 30 -5 52.5t-12 38.5t-23 26.5t-30 17t-40.5 10t-47 5t-57.5 2.5z" />
    <glyph glyph-name="dieresis" unicode="&#xa8;" horiz-adv-x="222" 
d="M170 707h84v-98h-84v98zM-27 707h83v-98h-83v98zM170 707h84v-98h-84v98zM-27 707h83v-98h-83v98z" />
    <glyph glyph-name="ordfeminine" unicode="&#xaa;" horiz-adv-x="277" 
d="M194 484v89q-19 -8 -68 -8q-15 0 -21.5 -1t-17 -5.5t-15 -16.5t-4.5 -32q0 -28 16 -42.5t41 -14.5q35 0 69 31zM228 434h-25l-12 23q-23 -26 -66 -26q-49 0 -70 19.5t-21 59.5q0 34 19.5 55.5t62.5 21.5h14h12.5h10t9.5 0.5t7.5 1t7 1.5t6 2.5t6 3.5t5.5 4q0 54 -11 67
t-49 13q-44 0 -74 -14l-10 25q40 14 89 14q42 0 65.5 -21.5t23.5 -81.5v-168z" />
    <glyph glyph-name="guillemotleft" unicode="&#xab;" horiz-adv-x="562" 
d="M65 282q0 12 12 20l170 121q0 -39 -12 -45l-135 -96q86 -65 131 -93q16 -11 16 -49l-169 122q-13 7 -13 20zM315 282q0 12 12 20l170 121q0 -39 -12 -45l-135 -96q86 -65 131 -93q16 -11 16 -49l-169 122q-13 7 -13 20z" />
    <glyph glyph-name="degree" unicode="&#xb0;" horiz-adv-x="400" 
d="M104 577q0 -32 9.5 -55t20.5 -33.5t29 -16t23.5 -5.5h16.5q9 0 17.5 0.5t25.5 6.5t29 16.5t22 33t10 53.5t-10 53.5t-21.5 33t-29.5 16.5t-25.5 6.5t-17.5 0.5q-9 0 -17 -0.5t-24.5 -6.5t-28 -16.5t-20.5 -33t-9 -53.5zM203 719q74 -1 107.5 -36.5t33.5 -105.5
q0 -64 -34 -102t-107 -38q-139 0 -139 140q0 69 36.5 105t102.5 37z" />
    <glyph glyph-name="twosuperior" unicode="&#xb2;" horiz-adv-x="348" 
d="M72 311h248v-11h-281q10 134 158 202q87 45 87 116q0 43 -25.5 70t-84.5 27q-58 0 -97 -44q-9 3 -18 10q47 45 116 45q65 0 98 -30.5t33 -77.5q0 -84 -102 -134q-65 -32 -98.5 -70t-33.5 -103z" />
    <glyph glyph-name="threesuperior" unicode="&#xb3;" horiz-adv-x="341" 
d="M174 713q-58 0 -139 -37v14q74 37 139 37q57 0 94.5 -24t37.5 -77q0 -77 -82 -100q111 -21 111 -108q0 -51 -48 -87t-126 -36q-92 0 -141 18v19h1q72 -20 137 -20q75 0 109 33.5t34 72.5q0 37 -35 69.5t-96 32.5h-42v13h42q108 0 108 93q0 36 -25.5 61.5t-78.5 25.5z" />
    <glyph glyph-name="acute" unicode="&#xb4;" horiz-adv-x="222" 
d="M130 742h102l-98 -128h-61z" />
    <glyph glyph-name="periodcentered" unicode="&#xb7;" horiz-adv-x="290" 
d="M106 306v85h85v-85h-85z" />
    <glyph glyph-name="cedilla" unicode="&#xb8;" horiz-adv-x="245" 
d="M109 -90q-17 0 -37 -5q3 3 11 19l19.5 39t20.5 39h7l-41 -80q60 5 88.5 -18t28.5 -55q0 -65 -81 -73q-41 0 -64 8v20q24 -10 48 -10q61 0 61 55q0 61 -61 61z" />
    <glyph glyph-name="onesuperior" unicode="&#xb9;" horiz-adv-x="297" 
d="M140 726h23v-364h-15v353l-26 -4l-17 -3l14 7z" />
    <glyph glyph-name="ordmasculine" unicode="&#xba;" horiz-adv-x="400" 
d="M104 577q0 -32 9.5 -55t20.5 -33.5t29 -16t23.5 -5.5h16.5q9 0 17.5 0.5t25.5 6.5t29 16.5t22 33t10 53.5t-10 53.5t-21.5 33t-29.5 16.5t-25.5 6.5t-17.5 0.5q-9 0 -17 -0.5t-24.5 -6.5t-28 -16.5t-20.5 -33t-9 -53.5zM203 719q74 -1 107.5 -36.5t33.5 -105.5
q0 -64 -34 -102t-107 -38q-139 0 -139 140q0 69 36.5 105t102.5 37z" />
    <glyph glyph-name="guillemotright" unicode="&#xbb;" horiz-adv-x="555" 
d="M512 282q0 -13 -13 -20l-169 -122q0 38 16 49q45 28 131 93l-135 96q-12 6 -12 45l170 -121q12 -8 12 -20zM262 282q0 -13 -13 -20l-169 -122q0 38 16 49q45 28 131 93l-135 96q-12 6 -12 45l170 -121q12 -8 12 -20z" />
    <glyph glyph-name="questiondown" unicode="&#xbf;" horiz-adv-x="562" 
d="M197 118q38 29 57.5 46.5t41 53t25.5 75.5h38q-5 -72 -35.5 -117.5t-77.5 -81.5q-32 -27 -47.5 -42t-30.5 -45t-15 -66q0 -58 44 -91.5t133 -33.5q83 0 191 50v-68q-96 -33 -191 -33q-114 0 -182 43.5t-68 132.5q0 40 18 73.5t37 51.5t62 52zM377 517v-84h-84v84h84z" />
    <glyph glyph-name="Agrave" unicode="&#xc0;" horiz-adv-x="640" 
d="M470 314l-127 368l-142 -368h269zM11 0l282 715h103l251 -715h-74l-90 272h-292l-111 -272h-69zM256 948h78l50 -112h-42z" />
    <glyph glyph-name="Aacute" unicode="&#xc1;" horiz-adv-x="640" 
d="M470 314l-127 368l-142 -368h269zM11 0l282 715h103l251 -715h-74l-90 272h-292l-111 -272h-69zM297 939h102l-98 -128h-61z" />
    <glyph glyph-name="Acircumflex" unicode="&#xc2;" horiz-adv-x="640" 
d="M470 314l-127 368l-142 -368h269zM11 0l282 715h103l251 -715h-74l-90 272h-292l-111 -272h-69zM399 822l-80 103l-79 -103h-43l103 129h39l103 -129h-43z" />
    <glyph glyph-name="Atilde" unicode="&#xc3;" horiz-adv-x="640" 
d="M470 314l-127 368l-142 -368h269zM11 0l282 715h103l251 -715h-74l-90 272h-292l-111 -272h-69zM181 859l-1 43q12 20 57 20q26 0 78.5 -14t80.5 -14q40 0 63 10v-38q-29 -23 -62 -23q-30 0 -81 13t-81 13t-54 -10z" />
    <glyph glyph-name="Adieresis" unicode="&#xc4;" horiz-adv-x="640" 
d="M470 314l-127 368l-142 -368h269zM11 0l282 715h103l251 -715h-74l-90 272h-292l-111 -272h-69zM376 904h84v-98h-84v98zM179 904h83v-98h-83v98zM376 904h84v-98h-84v98zM179 904h83v-98h-83v98z" />
    <glyph glyph-name="Aring" unicode="&#xc5;" horiz-adv-x="640" 
d="M470 314l-127 368l-142 -368h269zM11 0l282 715h103l251 -715h-74l-90 272h-292l-111 -272h-69zM226 843q0 -37 11 -63t23 -37.5t33 -18t27 -6.5h19q11 0 20.5 1t29 7.5t33.5 18.5t25 37.5t11 60.5t-11 60.5t-25 37.5t-33.5 18.5t-29 7.5t-20.5 1t-20 -1t-27.5 -7.5
t-31.5 -18.5t-23.5 -37.5t-10.5 -60.5zM339 980q136 -1 136 -137q0 -62 -32.5 -98.5t-103.5 -36.5q-134 0 -134 135q0 67 35 101.5t99 35.5z" />
    <glyph glyph-name="AE" unicode="&#xc6;" horiz-adv-x="1041" 
d="M607 672l-260 -357h258zM62 1l525 713h432v-42h-346q0 -112 0.5 -197t0.5 -90h256v-43h-256l2 -299h368v-43h-439v273h-281l-206 -272h-56z" />
    <glyph glyph-name="Ccedilla" unicode="&#xc7;" horiz-adv-x="680" 
d="M426 731q81 0 192 -33v-61q-109 52 -192 52q-8 0 -20.5 -1t-40.5 -8t-54.5 -19t-57 -37t-53.5 -59t-40 -88.5t-19 -121.5q1 -68 16.5 -122t36.5 -87.5t53 -57.5t56 -34.5t56 -16.5t42.5 -6.5t24.5 -0.5q103 0 199 78v-69q-89 -60 -199 -60q-171 0 -268 106.5t-99 268.5
q0 177 104.5 277t262.5 100zM384 -87q-17 0 -37 -5q3 3 11 19l19.5 39t20.5 39h7l-41 -80q60 5 88.5 -18t28.5 -55q0 -65 -81 -73q-41 0 -64 8v20q24 -10 48 -10q61 0 61 55q0 61 -61 61z" />
    <glyph glyph-name="Egrave" unicode="&#xc8;" horiz-adv-x="568" 
d="M94 0v714h415v-42h-352v-287h261v-43h-261v-299h376v-43h-439zM220 948h78l50 -112h-42z" />
    <glyph glyph-name="Eacute" unicode="&#xc9;" horiz-adv-x="568" 
d="M94 0v714h415v-42h-352v-287h261v-43h-261v-299h376v-43h-439zM261 939h102l-98 -128h-61z" />
    <glyph glyph-name="Ecircumflex" unicode="&#xca;" horiz-adv-x="568" 
d="M94 0v714h415v-42h-352v-287h261v-43h-261v-299h376v-43h-439zM363 822l-80 103l-79 -103h-43l103 129h39l103 -129h-43z" />
    <glyph glyph-name="Edieresis" unicode="&#xcb;" horiz-adv-x="568" 
d="M94 0v714h415v-42h-352v-287h261v-43h-261v-299h376v-43h-439zM340 904h84v-98h-84v98zM143 904h83v-98h-83v98zM340 904h84v-98h-84v98zM143 904h83v-98h-83v98z" />
    <glyph glyph-name="Igrave" unicode="&#xcc;" horiz-adv-x="259" 
d="M103 0v715h64v-715h-64zM65 948h78l50 -112h-42z" />
    <glyph glyph-name="Iacute" unicode="&#xcd;" horiz-adv-x="259" 
d="M103 0v715h64v-715h-64zM110 939h102l-98 -128h-61z" />
    <glyph glyph-name="Icircumflex" unicode="&#xce;" horiz-adv-x="259" 
d="M103 0v715h64v-715h-64zM209 822l-80 103l-79 -103h-43l103 129h39l103 -129h-43z" />
    <glyph glyph-name="Idieresis" unicode="&#xcf;" horiz-adv-x="259" 
d="M103 0v715h64v-715h-64zM186 904h84v-98h-84v98zM-11 904h83v-98h-83v98zM186 904h84v-98h-84v98zM-11 904h83v-98h-83v98z" />
    <glyph glyph-name="Ntilde" unicode="&#xd1;" horiz-adv-x="711" 
d="M91 0v714h95l397 -638v638h66v-714h-75l-419 673v-673h-64zM261 859l-1 43q12 20 57 20q26 0 78.5 -14t80.5 -14q40 0 63 10v-38q-29 -23 -62 -23q-30 0 -81 13t-81 13t-54 -10z" />
    <glyph glyph-name="Ograve" unicode="&#xd2;" 
d="M125 357q0 -70 15 -126t35 -90t53.5 -58.5t56.5 -35t60 -16.5t46.5 -6h32.5q16 0 30.5 1t48 7.5t60.5 18t60 36t55.5 58.5t38 88.5t15.5 122.5q0 69 -15.5 124t-37.5 88.5t-56.5 58t-60 35.5t-61 17t-47.5 6.5t-31 0.5q-17 0 -32 -1t-47.5 -7.5t-58.5 -18t-57.5 -36
t-52.5 -58.5t-35.5 -88t-14.5 -121zM424 731q193 -3 284 -96t91 -279q0 -170 -91.5 -273t-283.5 -103q-372 0 -377 376q0 182 98 277t279 98zM348 948h78l50 -112h-42z" />
    <glyph glyph-name="Oacute" unicode="&#xd3;" 
d="M125 357q0 -70 15 -126t35 -90t53.5 -58.5t56.5 -35t60 -16.5t46.5 -6h32.5q16 0 30.5 1t48 7.5t60.5 18t60 36t55.5 58.5t38 88.5t15.5 122.5q0 69 -15.5 124t-37.5 88.5t-56.5 58t-60 35.5t-61 17t-47.5 6.5t-31 0.5q-17 0 -32 -1t-47.5 -7.5t-58.5 -18t-57.5 -36
t-52.5 -58.5t-35.5 -88t-14.5 -121zM424 731q193 -3 284 -96t91 -279q0 -170 -91.5 -273t-283.5 -103q-372 0 -377 376q0 182 98 277t279 98zM389 939h102l-98 -128h-61z" />
    <glyph glyph-name="Ocircumflex" unicode="&#xd4;" 
d="M125 357q0 -70 15 -126t35 -90t53.5 -58.5t56.5 -35t60 -16.5t46.5 -6h32.5q16 0 30.5 1t48 7.5t60.5 18t60 36t55.5 58.5t38 88.5t15.5 122.5q0 69 -15.5 124t-37.5 88.5t-56.5 58t-60 35.5t-61 17t-47.5 6.5t-31 0.5q-17 0 -32 -1t-47.5 -7.5t-58.5 -18t-57.5 -36
t-52.5 -58.5t-35.5 -88t-14.5 -121zM424 731q193 -3 284 -96t91 -279q0 -170 -91.5 -273t-283.5 -103q-372 0 -377 376q0 182 98 277t279 98zM491 822l-80 103l-79 -103h-43l103 129h39l103 -129h-43z" />
    <glyph glyph-name="Otilde" unicode="&#xd5;" 
d="M125 357q0 -70 15 -126t35 -90t53.5 -58.5t56.5 -35t60 -16.5t46.5 -6h32.5q16 0 30.5 1t48 7.5t60.5 18t60 36t55.5 58.5t38 88.5t15.5 122.5q0 69 -15.5 124t-37.5 88.5t-56.5 58t-60 35.5t-61 17t-47.5 6.5t-31 0.5q-17 0 -32 -1t-47.5 -7.5t-58.5 -18t-57.5 -36
t-52.5 -58.5t-35.5 -88t-14.5 -121zM424 731q193 -3 284 -96t91 -279q0 -170 -91.5 -273t-283.5 -103q-372 0 -377 376q0 182 98 277t279 98zM273 859l-1 43q12 20 57 20q26 0 78.5 -14t80.5 -14q40 0 63 10v-38q-29 -23 -62 -23q-30 0 -81 13t-81 13t-54 -10z" />
    <glyph glyph-name="Odieresis" unicode="&#xd6;" 
d="M125 357q0 -70 15 -126t35 -90t53.5 -58.5t56.5 -35t60 -16.5t46.5 -6h32.5q16 0 30.5 1t48 7.5t60.5 18t60 36t55.5 58.5t38 88.5t15.5 122.5q0 69 -15.5 124t-37.5 88.5t-56.5 58t-60 35.5t-61 17t-47.5 6.5t-31 0.5q-17 0 -32 -1t-47.5 -7.5t-58.5 -18t-57.5 -36
t-52.5 -58.5t-35.5 -88t-14.5 -121zM424 731q193 -3 284 -96t91 -279q0 -170 -91.5 -273t-283.5 -103q-372 0 -377 376q0 182 98 277t279 98zM468 904h84v-98h-84v98zM271 904h83v-98h-83v98zM468 904h84v-98h-84v98zM271 904h83v-98h-83v98z" />
    <glyph glyph-name="Oslash" unicode="&#xd8;" 
d="M568 736h19l-10 -24q115 -44 168.5 -130.5t53.5 -225.5q0 -170 -91.5 -273t-283.5 -103q-59 0 -131 12l-4 -12h-17l7 15q-227 76 -232 361q0 174 104.5 274.5t272.5 100.5q73 0 134 -15q1 4 5 10l2 4t2 3t1 3zM125 357q0 -227 170 -314l129 324l119 304q-61 16 -120 16
q-18 0 -33 -1t-47.5 -7.5t-58.5 -18t-57 -36t-52 -58.5t-35.5 -88t-14.5 -121zM424 25q16 0 30.5 1t48 7.5t60.5 18t60 36t55.5 58.5t38 88.5t15.5 122.5q0 215 -173 308l-247 -628q44 -12 112 -12z" />
    <glyph glyph-name="Ugrave" unicode="&#xd9;" horiz-adv-x="717" 
d="M580 715h63v-409q0 -35 -0.5 -53t-5.5 -57t-14.5 -62t-29.5 -54.5t-48.5 -49t-73.5 -30.5t-102 -13q-58 0 -104 13t-75 31t-50 49t-31 56t-15.5 63.5t-6 59.5t-0.5 55v401h65v-409q0 -272 217 -272q211 0 211 272v409zM294 948h78l50 -112h-42z" />
    <glyph glyph-name="Uacute" unicode="&#xda;" horiz-adv-x="717" 
d="M580 715h63v-409q0 -35 -0.5 -53t-5.5 -57t-14.5 -62t-29.5 -54.5t-48.5 -49t-73.5 -30.5t-102 -13q-58 0 -104 13t-75 31t-50 49t-31 56t-15.5 63.5t-6 59.5t-0.5 55v401h65v-409q0 -272 217 -272q211 0 211 272v409zM336 939h102l-98 -128h-61z" />
    <glyph glyph-name="Ucircumflex" unicode="&#xdb;" horiz-adv-x="717" 
d="M580 715h63v-409q0 -35 -0.5 -53t-5.5 -57t-14.5 -62t-29.5 -54.5t-48.5 -49t-73.5 -30.5t-102 -13q-58 0 -104 13t-75 31t-50 49t-31 56t-15.5 63.5t-6 59.5t-0.5 55v401h65v-409q0 -272 217 -272q211 0 211 272v409zM438 822l-80 103l-79 -103h-43l103 129h39l103 -129
h-43z" />
    <glyph glyph-name="Udieresis" unicode="&#xdc;" horiz-adv-x="717" 
d="M580 715h63v-409q0 -35 -0.5 -53t-5.5 -57t-14.5 -62t-29.5 -54.5t-48.5 -49t-73.5 -30.5t-102 -13q-58 0 -104 13t-75 31t-50 49t-31 56t-15.5 63.5t-6 59.5t-0.5 55v401h65v-409q0 -272 217 -272q211 0 211 272v409zM415 904h84v-98h-84v98zM218 904h83v-98h-83v98z
M415 904h84v-98h-84v98zM218 904h83v-98h-83v98z" />
    <glyph glyph-name="Yacute" unicode="&#xdd;" horiz-adv-x="690" 
d="M318 268l-289 447h73l250 -396l253 396h74l-289 -447v-269h-72v269zM322 939h102l-98 -128h-61z" />
    <glyph glyph-name="germandbls" unicode="&#xdf;" horiz-adv-x="572" 
d="M441 205q0 64 -33.5 105t-136.5 63v52q80 4 118.5 37t38.5 103q0 72 -42 103.5t-107 31.5q-82 0 -106.5 -43t-24.5 -159v-498h-71v450q0 38 0.5 61.5t3.5 56t8.5 52.5t15 43.5t24.5 37.5t35.5 27t49.5 18.5t65 5.5q34 0 66.5 -8t66 -27t54 -58.5t20.5 -94.5
q0 -58 -35 -102.5t-115 -61.5q183 -46 183 -197q0 -54 -15.5 -94t-39 -62t-59 -35t-67 -16.5t-71.5 -3.5v47q174 17 174 166z" />
    <glyph glyph-name="agrave" unicode="&#xe0;" horiz-adv-x="463" 
d="M353 98l2 175q-60 -15 -142 -15q-20 0 -30.5 -0.5t-28 -6.5t-26.5 -16.5t-16.5 -33t-7.5 -54.5q0 -55 31.5 -83t81.5 -28q71 0 136 62zM420 331v-331h-47l-33 37q-43 -22 -79 -33t-92 -11q-59 0 -95 40.5t-36 114.5q0 68 37.5 110.5t123.5 42.5q82 0 107.5 4t46.5 23
q0 71 -12 104.5t-34 43t-70 9.5q-71 0 -148 -30q-13 36 -17 44q80 34 171 34q82 0 129.5 -44t47.5 -158zM167 751h78l50 -112h-42z" />
    <glyph glyph-name="aacute" unicode="&#xe1;" horiz-adv-x="463" 
d="M353 98l2 175q-60 -15 -142 -15q-20 0 -30.5 -0.5t-28 -6.5t-26.5 -16.5t-16.5 -33t-7.5 -54.5q0 -55 31.5 -83t81.5 -28q71 0 136 62zM420 331v-331h-47l-33 37q-43 -22 -79 -33t-92 -11q-59 0 -95 40.5t-36 114.5q0 68 37.5 110.5t123.5 42.5q82 0 107.5 4t46.5 23
q0 71 -12 104.5t-34 43t-70 9.5q-71 0 -148 -30q-13 36 -17 44q80 34 171 34q82 0 129.5 -44t47.5 -158zM209 742h102l-98 -128h-61z" />
    <glyph glyph-name="acircumflex" unicode="&#xe2;" horiz-adv-x="463" 
d="M353 98l2 175q-60 -15 -142 -15q-20 0 -30.5 -0.5t-28 -6.5t-26.5 -16.5t-16.5 -33t-7.5 -54.5q0 -55 31.5 -83t81.5 -28q71 0 136 62zM420 331v-331h-47l-33 37q-43 -22 -79 -33t-92 -11q-59 0 -95 40.5t-36 114.5q0 68 37.5 110.5t123.5 42.5q82 0 107.5 4t46.5 23
q0 71 -12 104.5t-34 43t-70 9.5q-71 0 -148 -30q-13 36 -17 44q80 34 171 34q82 0 129.5 -44t47.5 -158zM311 625l-80 103l-79 -103h-43l103 129h39l103 -129h-43z" />
    <glyph glyph-name="atilde" unicode="&#xe3;" horiz-adv-x="463" 
d="M353 98l2 175q-60 -15 -142 -15q-20 0 -30.5 -0.5t-28 -6.5t-26.5 -16.5t-16.5 -33t-7.5 -54.5q0 -55 31.5 -83t81.5 -28q71 0 136 62zM420 331v-331h-47l-33 37q-43 -22 -79 -33t-92 -11q-59 0 -95 40.5t-36 114.5q0 68 37.5 110.5t123.5 42.5q82 0 107.5 4t46.5 23
q0 71 -12 104.5t-34 43t-70 9.5q-71 0 -148 -30q-13 36 -17 44q80 34 171 34q82 0 129.5 -44t47.5 -158zM93 662l-1 43q12 20 57 20q26 0 78.5 -14t80.5 -14q40 0 63 10v-38q-29 -23 -62 -23q-30 0 -81 13t-81 13t-54 -10z" />
    <glyph glyph-name="adieresis" unicode="&#xe4;" horiz-adv-x="463" 
d="M353 98l2 175q-60 -15 -142 -15q-20 0 -30.5 -0.5t-28 -6.5t-26.5 -16.5t-16.5 -33t-7.5 -54.5q0 -55 31.5 -83t81.5 -28q71 0 136 62zM420 331v-331h-47l-33 37q-43 -22 -79 -33t-92 -11q-59 0 -95 40.5t-36 114.5q0 68 37.5 110.5t123.5 42.5q82 0 107.5 4t46.5 23
q0 71 -12 104.5t-34 43t-70 9.5q-71 0 -148 -30q-13 36 -17 44q80 34 171 34q82 0 129.5 -44t47.5 -158zM288 707h84v-98h-84v98zM91 707h83v-98h-83v98zM288 707h84v-98h-84v98zM91 707h83v-98h-83v98z" />
    <glyph glyph-name="aring" unicode="&#xe5;" horiz-adv-x="463" 
d="M353 98l2 175q-60 -15 -142 -15q-20 0 -30.5 -0.5t-28 -6.5t-26.5 -16.5t-16.5 -33t-7.5 -54.5q0 -55 31.5 -83t81.5 -28q71 0 136 62zM420 331v-331h-47l-33 37q-43 -22 -79 -33t-92 -11q-59 0 -95 40.5t-36 114.5q0 68 37.5 110.5t123.5 42.5q82 0 107.5 4t46.5 23
q0 71 -12 104.5t-34 43t-70 9.5q-71 0 -148 -30q-13 36 -17 44q80 34 171 34q82 0 129.5 -44t47.5 -158zM117 590q0 -37 11 -63t23 -37.5t33 -18t27 -6.5h19q11 0 20.5 1t29 7.5t33.5 18.5t25 37.5t11 60.5t-11 60.5t-25 37.5t-33.5 18.5t-29 7.5t-20.5 1t-20 -1t-27.5 -7.5
t-31.5 -18.5t-23.5 -37.5t-10.5 -60.5zM230 727q136 -1 136 -137q0 -62 -32.5 -98.5t-103.5 -36.5q-134 0 -134 135q0 67 35 101.5t99 35.5z" />
    <glyph glyph-name="ae" unicode="&#xe6;" horiz-adv-x="826" 
d="M235 491q-87 0 -155 -82l-13 10q-17 15 -30 25q77 88 198 88q122 0 200 -91q82 91 194 91q206 0 206 -240h-368q0 -37 0.5 -58.5t4 -53.5t9.5 -51t18 -41.5t29 -34.5t43 -20t59 -8q93 0 153 82q11 -7 23.5 -18.5t19.5 -16.5q-69 -88 -196 -88q-119 0 -203 90
q-81 -90 -191 -90q-98 0 -152 58.5t-54 181.5h368q0 37 -0.5 58.5t-4 53.5t-9.5 51t-18 41.5t-29 34.5t-43 20t-59 8zM475 333h302q-5 56 -42.5 104.5t-105.5 48.5q-79 0 -114 -44.5t-40 -108.5zM389 183h-300q2 -34 16 -67t48.5 -59.5t82.5 -26.5q79 0 113.5 44t39.5 109z
" />
    <glyph glyph-name="ccedilla" unicode="&#xe7;" horiz-adv-x="531" 
d="M292 -84q-24 0 -35 -1q5 3 38 67q-239 43 -239 279q0 145 68.5 206t201.5 61q95 0 165 -36v-56q-84 48 -165 48q-44 0 -77 -9t-63.5 -31.5t-46.5 -68t-16 -112.5q0 -134 54.5 -184.5t148.5 -50.5q86 0 174 43q0 -49 1 -60q-101 -29 -175 -29h-29l-20 -54q59 2 86 -19
t27 -55q0 -31 -21.5 -49.5t-58.5 -21.5h1q-41 0 -67 6v21q21 -10 48 -10q21 0 41 12t20 42q0 62 -61 62z" />
    <glyph glyph-name="egrave" unicode="&#xe8;" horiz-adv-x="521" 
d="M127 305l307 1q-1 70 -33 125q-35 55 -113 55q-81 0 -121 -52t-40 -129zM288 25q54 0 93 25t60 56q13 -10 23 -18t14 -11.5t7 -5.5q-74 -87 -197 -87q-127 0 -180 67t-55 196q0 285 235 285q206 0 205 -269l-374 1q0 -49 2 -79.5t11.5 -64.5t27 -52t50 -30.5t78.5 -12.5z
M196 751h78l50 -112h-42z" />
    <glyph glyph-name="eacute" unicode="&#xe9;" horiz-adv-x="521" 
d="M127 305l307 1q-1 70 -33 125q-35 55 -113 55q-81 0 -121 -52t-40 -129zM288 25q54 0 93 25t60 56q13 -10 23 -18t14 -11.5t7 -5.5q-74 -87 -197 -87q-127 0 -180 67t-55 196q0 285 235 285q206 0 205 -269l-374 1q0 -49 2 -79.5t11.5 -64.5t27 -52t50 -30.5t78.5 -12.5z
M238 742h102l-98 -128h-61z" />
    <glyph glyph-name="ecircumflex" unicode="&#xea;" horiz-adv-x="521" 
d="M127 305l307 1q-1 70 -33 125q-35 55 -113 55q-81 0 -121 -52t-40 -129zM288 25q54 0 93 25t60 56q13 -10 23 -18t14 -11.5t7 -5.5q-74 -87 -197 -87q-127 0 -180 67t-55 196q0 285 235 285q206 0 205 -269l-374 1q0 -49 2 -79.5t11.5 -64.5t27 -52t50 -30.5t78.5 -12.5z
M340 625l-80 103l-79 -103h-43l103 129h39l103 -129h-43z" />
    <glyph glyph-name="edieresis" unicode="&#xeb;" horiz-adv-x="521" 
d="M127 305l307 1q-1 70 -33 125q-35 55 -113 55q-81 0 -121 -52t-40 -129zM288 25q54 0 93 25t60 56q13 -10 23 -18t14 -11.5t7 -5.5q-74 -87 -197 -87q-127 0 -180 67t-55 196q0 285 235 285q206 0 205 -269l-374 1q0 -49 2 -79.5t11.5 -64.5t27 -52t50 -30.5t78.5 -12.5z
M317 707h84v-98h-84v98zM120 707h83v-98h-83v98zM317 707h84v-98h-84v98zM120 707h83v-98h-83v98z" />
    <glyph glyph-name="igrave" unicode="&#xec;" horiz-adv-x="241" 
d="M92 0v518h68v-518h-68zM56 751h78l50 -112h-42z" />
    <glyph glyph-name="iacute" unicode="&#xed;" horiz-adv-x="241" 
d="M92 0v518h68v-518h-68zM101 742h102l-98 -128h-61z" />
    <glyph glyph-name="icircumflex" unicode="&#xee;" horiz-adv-x="241" 
d="M92 0v518h68v-518h-68zM201 625l-80 103l-79 -103h-43l103 129h39l103 -129h-43z" />
    <glyph glyph-name="idieresis" unicode="&#xef;" horiz-adv-x="241" 
d="M92 0v518h68v-518h-68zM177 707h84v-98h-84v98zM-20 707h83v-98h-83v98zM177 707h84v-98h-84v98zM-20 707h83v-98h-83v98z" />
    <glyph glyph-name="ntilde" unicode="&#xf1;" horiz-adv-x="562" 
d="M445 0v320q0 79 -32 121t-94 42q-68 0 -119.5 -46t-51.5 -106v-331h-66v518h59l6 -103q19 47 80 82.5t122 35.5q74 0 117 -56t43 -164v-313h-64zM142 662l-1 43q13 20 57 20q26 0 78.5 -14t80.5 -14q40 0 63 10v-38q-29 -23 -62 -23q-30 0 -81 13t-81 13t-54 -10z" />
    <glyph glyph-name="ograve" unicode="&#xf2;" horiz-adv-x="563" 
d="M118 261q0 -63 11.5 -108t28 -68.5t42.5 -36.5t46 -16t48 -3q25 0 40 1.5t40.5 14t40.5 35t27 69t12 112.5q0 46 -6.5 82.5t-15.5 60t-24.5 40t-28.5 25t-33 13t-31.5 5t-31.5 0.5q-21 0 -31 -0.5t-31 -4.5t-32.5 -12t-27 -24t-23.5 -39.5t-14 -60.5t-6 -85zM283 533
q246 0 246 -272q0 -143 -51.5 -210.5t-183.5 -67.5q-128 0 -186.5 77.5t-58.5 200.5q0 136 54 204t180 68zM217 751h78l50 -112h-42z" />
    <glyph glyph-name="oacute" unicode="&#xf3;" horiz-adv-x="563" 
d="M118 261q0 -63 11.5 -108t28 -68.5t42.5 -36.5t46 -16t48 -3q25 0 40 1.5t40.5 14t40.5 35t27 69t12 112.5q0 46 -6.5 82.5t-15.5 60t-24.5 40t-28.5 25t-33 13t-31.5 5t-31.5 0.5q-21 0 -31 -0.5t-31 -4.5t-32.5 -12t-27 -24t-23.5 -39.5t-14 -60.5t-6 -85zM283 533
q246 0 246 -272q0 -143 -51.5 -210.5t-183.5 -67.5q-128 0 -186.5 77.5t-58.5 200.5q0 136 54 204t180 68zM259 742h102l-98 -128h-61z" />
    <glyph glyph-name="ocircumflex" unicode="&#xf4;" horiz-adv-x="563" 
d="M118 261q0 -63 11.5 -108t28 -68.5t42.5 -36.5t46 -16t48 -3q25 0 40 1.5t40.5 14t40.5 35t27 69t12 112.5q0 46 -6.5 82.5t-15.5 60t-24.5 40t-28.5 25t-33 13t-31.5 5t-31.5 0.5q-21 0 -31 -0.5t-31 -4.5t-32.5 -12t-27 -24t-23.5 -39.5t-14 -60.5t-6 -85zM283 533
q246 0 246 -272q0 -143 -51.5 -210.5t-183.5 -67.5q-128 0 -186.5 77.5t-58.5 200.5q0 136 54 204t180 68zM361 625l-80 103l-79 -103h-43l103 129h39l103 -129h-43z" />
    <glyph glyph-name="otilde" unicode="&#xf5;" horiz-adv-x="563" 
d="M118 261q0 -63 11.5 -108t28 -68.5t42.5 -36.5t46 -16t48 -3q25 0 40 1.5t40.5 14t40.5 35t27 69t12 112.5q0 46 -6.5 82.5t-15.5 60t-24.5 40t-28.5 25t-33 13t-31.5 5t-31.5 0.5q-21 0 -31 -0.5t-31 -4.5t-32.5 -12t-27 -24t-23.5 -39.5t-14 -60.5t-6 -85zM283 533
q246 0 246 -272q0 -143 -51.5 -210.5t-183.5 -67.5q-128 0 -186.5 77.5t-58.5 200.5q0 136 54 204t180 68zM143 662l-1 43q12 20 57 20q26 0 78.5 -14t80.5 -14q40 0 63 10v-38q-29 -23 -62 -23q-30 0 -81 13t-81 13t-54 -10z" />
    <glyph glyph-name="odieresis" unicode="&#xf6;" horiz-adv-x="563" 
d="M118 261q0 -63 11.5 -108t28 -68.5t42.5 -36.5t46 -16t48 -3q25 0 40 1.5t40.5 14t40.5 35t27 69t12 112.5q0 46 -6.5 82.5t-15.5 60t-24.5 40t-28.5 25t-33 13t-31.5 5t-31.5 0.5q-21 0 -31 -0.5t-31 -4.5t-32.5 -12t-27 -24t-23.5 -39.5t-14 -60.5t-6 -85zM283 533
q246 0 246 -272q0 -143 -51.5 -210.5t-183.5 -67.5q-128 0 -186.5 77.5t-58.5 200.5q0 136 54 204t180 68zM338 707h84v-98h-84v98zM141 707h83v-98h-83v98zM338 707h84v-98h-84v98zM141 707h83v-98h-83v98z" />
    <glyph glyph-name="oslash" unicode="&#xf8;" horiz-adv-x="565" 
d="M287 533q104 0 156 -41l18 26h11l-22 -32q85 -64 85 -225q0 -142 -53.5 -210t-184.5 -68q-78 0 -135 29q-4 -8 -7 -12l-12 -20h-12l22 37q-53 31 -78.5 99.5t-25.5 144.5q0 136 55.5 204t182.5 68zM121 261q0 -114 60 -199l234 381q-18 22 -45.5 32.5t-39.5 11t-43 0.5
q-19 0 -27.5 -0.5t-27.5 -2.5t-29 -8t-25 -16t-23.5 -27t-17 -40t-12.5 -56.5t-4 -75.5zM297 29q25 0 40 1.5t40.5 14t40.5 35t27 69t12 112.5q0 127 -36 175l-234 -380q40 -27 110 -27z" />
    <glyph glyph-name="ugrave" unicode="&#xf9;" horiz-adv-x="574" 
d="M146 518v-330q0 -82 24.5 -121t87.5 -39q72 0 129.5 49t57.5 127v314h65v-518h-60l-5 108q-23 -60 -76 -92.5t-127 -32.5q-73 0 -118.5 51t-45.5 163v321h68zM223 751h78l50 -112h-42z" />
    <glyph glyph-name="uacute" unicode="&#xfa;" horiz-adv-x="574" 
d="M146 518v-330q0 -82 24.5 -121t87.5 -39q72 0 129.5 49t57.5 127v314h65v-518h-60l-5 108q-23 -60 -76 -92.5t-127 -32.5q-73 0 -118.5 51t-45.5 163v321h68zM264 742h102l-98 -128h-61z" />
    <glyph glyph-name="ucircumflex" unicode="&#xfb;" horiz-adv-x="574" 
d="M146 518v-330q0 -82 24.5 -121t87.5 -39q72 0 129.5 49t57.5 127v314h65v-518h-60l-5 108q-23 -60 -76 -92.5t-127 -32.5q-73 0 -118.5 51t-45.5 163v321h68zM366 625l-80 103l-79 -103h-43l103 129h39l103 -129h-43z" />
    <glyph glyph-name="udieresis" unicode="&#xfc;" horiz-adv-x="574" 
d="M146 518v-330q0 -82 24.5 -121t87.5 -39q72 0 129.5 49t57.5 127v314h65v-518h-60l-5 108q-23 -60 -76 -92.5t-127 -32.5q-73 0 -118.5 51t-45.5 163v321h68zM343 707h84v-98h-84v98zM146 707h83v-98h-83v98zM343 707h84v-98h-84v98zM146 707h83v-98h-83v98z" />
    <glyph glyph-name="yacute" unicode="&#xfd;" horiz-adv-x="535" 
d="M257 -52l-227 570h68l193 -518l168 518h68l-261 -730h-58zM245 742h102l-98 -128h-61z" />
    <glyph glyph-name="ydieresis" unicode="&#xff;" horiz-adv-x="535" 
d="M257 -52l-227 570h68l193 -518l168 518h68l-261 -730h-58zM324 707h84v-98h-84v98zM127 707h83v-98h-83v98zM324 707h84v-98h-84v98zM127 707h83v-98h-83v98z" />
    <glyph glyph-name="dotlessi" unicode="&#x131;" horiz-adv-x="241" 
d="M92 0v518h68v-518h-68z" />
    <glyph glyph-name="Scaron" unicode="&#x160;" horiz-adv-x="588" 
d="M531 689v-51q-108 50 -227 50q-71 0 -120 -37t-49 -101q0 -60 38 -92.5t118 -54.5q45 -14 71 -23t67.5 -29.5t64.5 -42.5t41 -58t18 -80q0 -55 -27.5 -95t-72 -59.5t-86.5 -27.5t-84 -8q-142 0 -227 58v66q103 -76 227 -76q82 0 138 41.5t56 100.5q0 23 -5 41t-21 43.5
t-56 48t-101 38.5h1q-123 35 -181 81.5t-58 128.5q0 74 66.5 127t182.5 53q142 0 226 -42zM214 951l80 -103l79 103h43l-103 -129h-39l-103 129h43z" />
    <glyph glyph-name="scaron" unicode="&#x161;" horiz-adv-x="472" 
d="M235 528q13 0 26.5 -1t24.5 -2t24 -4t21 -5t20.5 -6t18 -5.5t17 -6.5t14.5 -6t14 -6t12 -5q0 -8 0.5 -25t0.5 -23q-123 53 -193 53q-49 0 -78.5 -18.5t-29.5 -70.5q0 -45 25 -62.5t92 -35.5q109 -27 159.5 -64.5t50.5 -96.5q0 -71 -56 -112t-149 -41q-120 0 -205 58
q0 11 0.5 32t0.5 33q124 -73 204 -73q135 0 135 103q0 20 -11 36t-24.5 26.5t-43 22t-48.5 17t-59 16.5q-80 23 -111 56t-31 87q0 21 7.5 41t25.5 41t55.5 34t90.5 13zM156 754l80 -103l79 103h43l-103 -129h-39l-103 129h43z" />
    <glyph glyph-name="Ydieresis" unicode="&#x178;" horiz-adv-x="690" 
d="M318 268l-289 447h73l250 -396l253 396h74l-289 -447v-269h-72v269zM401 904h84v-98h-84v98zM204 904h83v-98h-83v98zM401 904h84v-98h-84v98zM204 904h83v-98h-83v98z" />
    <glyph glyph-name="Zcaron" unicode="&#x17d;" horiz-adv-x="655" 
d="M102 50h539v-50h-607v67l548 605h-548v43h607v-66zM248 951l80 -103l79 103h43l-103 -129h-39l-103 129h43z" />
    <glyph glyph-name="zcaron" unicode="&#x17e;" horiz-adv-x="458" 
d="M109 53h330v-53h-402v53l333 421h-333v44h410v-44zM149 754l80 -103l79 103h43l-103 -129h-39l-103 129h43z" />
    <glyph glyph-name="florin" unicode="&#x192;" horiz-adv-x="322" 
d="M422 748l1 -51q-57 30 -111 30q-39 0 -65.5 -8.5t-40.5 -19.5t-20.5 -35t-7.5 -41t-1 -52v-8v-46h129v-43h-129v-495q-2 -54 -15.5 -93.5t-35.5 -59.5t-39.5 -28.5t-36.5 -12.5v45q35 32 49 59.5t14 82.5v502h-86v43h86v46q0 121 48.5 168.5t150.5 47.5q46 0 110 -31z
" />
    <glyph glyph-name="circumflex" unicode="&#x2c6;" horiz-adv-x="240" 
d="M201 625l-80 103l-79 -103h-43l103 129h39l103 -129h-43z" />
    <glyph glyph-name="caron" unicode="&#x2c7;" horiz-adv-x="230" 
d="M42 754l80 -103l79 103h43l-103 -129h-39l-103 129h43z" />
    <glyph glyph-name="ring" unicode="&#x2da;" horiz-adv-x="400" 
d="M94 590q0 -37 11 -63t23 -37.5t33 -18t27 -6.5h19q11 0 20.5 1t29 7.5t33.5 18.5t25 37.5t11 60.5t-11 60.5t-25 37.5t-33.5 18.5t-29 7.5t-20.5 1t-20 -1t-27.5 -7.5t-31.5 -18.5t-23.5 -37.5t-10.5 -60.5zM207 727q136 -1 136 -137q0 -62 -32.5 -98.5t-103.5 -36.5
q-134 0 -134 135q0 67 35 101.5t99 35.5z" />
    <glyph glyph-name="tilde" unicode="&#x2dc;" horiz-adv-x="222" 
d="M-17 662l-1 43q12 20 57 20q26 0 78.5 -14t80.5 -14q40 0 63 10v-38q-29 -23 -62 -23q-30 0 -81 13t-81 13t-54 -10z" />
    <glyph glyph-name="gravecmb" unicode="&#x300;" horiz-adv-x="222" 
d="M4 751h78l50 -112h-42z" />
    <glyph glyph-name="acutecmb" unicode="&#x301;" horiz-adv-x="222" 
d="M130 742h102l-98 -128h-61z" />
    <glyph glyph-name="circumflexcmb" unicode="&#x302;" horiz-adv-x="240" 
d="M201 625l-80 103l-79 -103h-43l103 129h39l103 -129h-43z" />
    <glyph glyph-name="tildecmb" unicode="&#x303;" horiz-adv-x="222" 
d="M-17 662l-1 43q12 20 57 20q26 0 78.5 -14t80.5 -14q40 0 63 10v-38q-29 -23 -62 -23q-30 0 -81 13t-81 13t-54 -10z" />
    <glyph glyph-name="dieresiscmb" unicode="&#x308;" horiz-adv-x="0" 
 />
    <glyph glyph-name="ringcmb" unicode="&#x30a;" horiz-adv-x="400" 
d="M94 590q0 -37 11 -63t23 -37.5t33 -18t27 -6.5h19q11 0 20.5 1t29 7.5t33.5 18.5t25 37.5t11 60.5t-11 60.5t-25 37.5t-33.5 18.5t-29 7.5t-20.5 1t-20 -1t-27.5 -7.5t-31.5 -18.5t-23.5 -37.5t-10.5 -60.5zM207 727q136 -1 136 -137q0 -62 -32.5 -98.5t-103.5 -36.5
q-134 0 -134 135q0 67 35 101.5t99 35.5z" />
    <glyph glyph-name="caroncmb" unicode="&#x30c;" horiz-adv-x="230" 
d="M42 754l80 -103l79 103h43l-103 -129h-39l-103 129h43z" />
    <glyph glyph-name="cedillacmb" unicode="&#x327;" horiz-adv-x="245" 
d="M109 -90q-17 0 -37 -5q3 3 11 19l19.5 39t20.5 39h7l-41 -80q60 5 88.5 -18t28.5 -55q0 -65 -81 -73q-41 0 -64 8v20q24 -10 48 -10q61 0 61 55q0 61 -61 61z" />
    <glyph glyph-name="soliduslongoverlaycmb" unicode="&#x338;" horiz-adv-x="0" 
 />
    <glyph glyph-name="endash" unicode="&#x2013;" horiz-adv-x="500" 
d="M12 304h499v-51h-499v51z" />
    <glyph glyph-name="emdash" unicode="&#x2014;" horiz-adv-x="1000" 
d="M143 253v51h759v-51h-759z" />
    <glyph glyph-name="quoteleft" unicode="&#x2018;" horiz-adv-x="278" 
d="M125 533h62v-85h-87q-9 51 -9 100q0 157 109 173v-39q-26 -3 -42 -15.5t-22.5 -36t-8.5 -43.5t-2 -54z" />
    <glyph glyph-name="quoteright" unicode="&#x2019;" horiz-adv-x="278" 
d="M103 637v85h87q8 -62 8 -102q0 -148 -109 -171v36q18 2 31.5 8.5t21 19.5t12.5 23.5t6.5 31.5t2 32.5t0.5 36.5h-60z" />
    <glyph glyph-name="quotesinglbase" unicode="&#x201a;" horiz-adv-x="278" 
d="M106 0v84h87q8 -62 8 -99q0 -156 -109 -172v35q27 3 43 16t22 39t7.5 43.5t1.5 53.5h-60z" />
    <glyph glyph-name="quotedblleft" unicode="&#x201c;" horiz-adv-x="440" 
d="M183 721v-38q-26 -4 -42 -16.5t-23 -36.5t-8.5 -43.5t-1.5 -53.5h62v-85h-87q-10 53 -10 100q0 151 110 173zM317 533h60v-85h-87q-7 68 -7 100q0 152 108 173v-38q-25 -4 -41 -16.5t-22.5 -36t-8.5 -43.5t-2 -54z" />
    <glyph glyph-name="quotedblright" unicode="&#x201d;" horiz-adv-x="444" 
d="M290 637v85h88q9 -45 9 -102q0 -151 -109 -171v36q18 2 31.5 8.5t21 19.5t12.5 23.5t6.5 31.5t2 32.5t0.5 36.5h-62zM84 637v85h87q8 -78 8 -102q0 -149 -110 -171v36q21 2 36 12.5t22.5 23t11.5 35t4.5 38t0.5 43.5h-60z" />
    <glyph glyph-name="quotedblbase" unicode="&#x201e;" horiz-adv-x="487" 
d="M102 0v84h86q9 -58 9 -99q0 -156 -109 -172v35q26 3 42 16t22 38.5t7.5 44t1.5 53.5h-59zM328 0v84h87q10 -59 10 -99q0 -85 -31.5 -125t-78.5 -47v35q18 2 31 8t20.5 19.5t12 23t6 32t2 32t0.5 36.5q-8 0 -28.5 0.5t-30.5 0.5z" />
    <glyph glyph-name="bullet" unicode="&#x2022;" horiz-adv-x="500" 
d="M78 364q0 75 53 128t128 53t128 -53t53 -128t-53 -128t-128 -53t-128 53t-53 128z" />
    <glyph glyph-name="ellipsis" unicode="&#x2026;" horiz-adv-x="813" 
d="M93 -1v84h85v-84h-85zM387 -1v84h85v-84h-85zM681 -1v84h84v-84h-84z" />
    <glyph glyph-name="guilsinglleft" unicode="&#x2039;" horiz-adv-x="306" 
d="M71 282q0 12 12 20l170 121q0 -39 -12 -45l-135 -96q86 -65 131 -93q16 -11 16 -49l-169 122q-13 7 -13 20z" />
    <glyph glyph-name="guilsinglright" unicode="&#x203a;" horiz-adv-x="311" 
d="M257 282q0 -13 -13 -20l-169 -122q0 38 16 49q45 28 131 93l-135 96q-12 6 -12 45l170 -121q12 -8 12 -20z" />
    <glyph glyph-name="fraction" unicode="&#x2044;" horiz-adv-x="347" 
d="M343 753h12l-333 -773h-13z" />
    <glyph glyph-name="Euro" unicode="&#x20ac;" horiz-adv-x="615" 
d="M53 481h61q56 288 288 288q75 0 195 -35v-62q-118 53 -195 53q-31 0 -56 -7.5t-56 -30t-56 -75t-39 -131.5h251l-7 -21h-244q-4 -99 3 -167h193q-2 -15 -5 -22h-187q15 -62 41.5 -107.5t49.5 -65.5t51.5 -31.5t39 -12.5t21.5 -1q108 0 203 77v-70q-87 -60 -203 -60
q-103 0 -180.5 72t-108.5 199h-73l13 22h59q-6 114 1 167h-73z" />
    <glyph glyph-name="approxequal" unicode="&#x2248;" horiz-adv-x="600" 
d="M207 216q-35 0 -99 -19q0 10 -1 21t-1 19q67 31 103 31q47 0 102 -14t108 -14q49 0 99 22v-45q-67 -28 -99 -28q-50 0 -106.5 13.5t-105.5 13.5z" />
    <glyph glyph-name="notequal" unicode="&#x2260;" horiz-adv-x="598" 
d="M59 169h501v-41h-501v41zM59 378h501v-43h-501v43z" />
    <glyph glyph-name="middot" horiz-adv-x="290" 
d="M106 306v85h85v-85h-85z" />
    </font>
</defs>
</svg>
